<svg xmlns="http://www.w3.org/2000/svg" xmlns:xlink="http://www.w3.org/1999/xlink" width="496" height="496" viewBox="0 0 496 496">
  <defs>
    <linearGradient id="linear-gradient" x1="0.5" x2="0.5" y2="1" gradientUnits="objectBoundingBox">
      <stop offset="0" stop-color="#fff" stop-opacity="0.251"/>
      <stop offset="1" stop-color="#77bafc" stop-opacity="0.251"/>
    </linearGradient>
    <clipPath id="clip-cnap">
      <rect width="496" height="496"/>
    </clipPath>
  </defs>
  <g id="cnap" clip-path="url(#clip-cnap)">
    <g id="Component_1_19" data-name="Component 1 – 19" transform="translate(16 16)">
      <g id="Ellipse_1" data-name="Ellipse 1" stroke="#fff" stroke-width="5" opacity="0.5" fill="url(#linear-gradient)">
        <circle cx="232" cy="232" r="232" stroke="none"/>
        <circle cx="232" cy="232" r="229.5" fill="none"/>
      </g>
    </g>
    <g id="Cnap-2" data-name="Cnap">
      <g id="Tablet" transform="translate(128 88)">
        <g id="Rectangle_1" data-name="Rectangle 1" fill="#1671bb" stroke="#fff" stroke-width="8">
          <rect width="240" height="320" rx="30" stroke="none"/>
          <rect x="4" y="4" width="232" height="312" rx="26" fill="none"/>
        </g>
        <rect id="Rectangle_2" data-name="Rectangle 2" width="208" height="264" rx="30" transform="translate(16 16)" fill="#c7e5ff"/>
        <circle id="Ellipse_2" data-name="Ellipse 2" cx="8" cy="8" r="8" transform="translate(112 292)" fill="#fff"/>
      </g>
      <g id="CNAP-3" data-name="CNAP" transform="translate(168 124)">
        <g id="Rectangle_3" data-name="Rectangle 3" fill="#fff" stroke="#102434" stroke-linecap="round" stroke-width="8">
          <rect width="160" height="224" rx="30" stroke="none"/>
          <rect x="4" y="4" width="152" height="216" rx="26" fill="none"/>
        </g>
        <line id="Line_3" data-name="Line 3" x2="88" transform="translate(40 100)" fill="none" stroke="#102434" stroke-linecap="round" stroke-width="8"/>
        <line id="Line_4" data-name="Line 4" x2="88" transform="translate(40 124)" fill="none" stroke="#102434" stroke-linecap="round" stroke-width="8"/>
        <line id="Line_5" data-name="Line 5" x2="88" transform="translate(40 148)" fill="none" stroke="#102434" stroke-linecap="round" stroke-width="8"/>
        <g id="Rectangle_11" data-name="Rectangle 11" transform="translate(63 38)" fill="#c7e5ff" stroke="#1671bb" stroke-width="8">
          <rect width="35" height="35" rx="10" stroke="none"/>
          <rect x="4" y="4" width="27" height="27" rx="6" fill="none"/>
        </g>
      </g>
      <g id="Hand_-_mano" data-name="Hand - mano" transform="translate(288.4 287.321)">
        <g id="Union_8" data-name="Union 8" transform="translate(-68.762 -26.868) rotate(-30)" fill="#fff" stroke-linecap="round" stroke-linejoin="round">
          <path d="M 74.21040344238281 190.9992980957031 C 64.81159210205078 190.9992980957031 55.94774627685547 186.8944549560547 49.86176300048828 179.7303466796875 C 49.64429473876953 179.5094451904297 49.43436050415039 179.2780151367188 49.2358512878418 179.040283203125 L 26.06315040588379 151.2801971435547 C 24.13686561584473 148.9725646972656 23.2197322845459 146.0503540039062 23.48069953918457 143.0518646240234 C 23.7418155670166 140.0517730712891 25.15108299255371 137.3323516845703 27.44891738891602 135.3945770263672 C 29.47216606140137 133.6878356933594 32.04129791259766 132.7476806640625 34.68259811401367 132.7476806640625 C 37.51778411865234 132.7476806640625 40.21208953857422 133.8086395263672 42.27259826660156 135.6999359130859 L 42.27259826660156 133.4961090087891 L 42.27259826660156 96.98400115966797 C 42.27259826660156 94.04986572265625 43.41534805297852 91.29141235351562 45.49034881591797 89.216796875 C 47.56510162353516 87.14241790771484 50.32353210449219 86 53.25749969482422 86 C 56.19155120849609 86 58.94990158081055 87.14250183105469 61.02444839477539 89.21704864501953 C 63.0989990234375 91.29159545898438 64.24150085449219 94.04994964599609 64.24150085449219 96.98400115966797 L 64.24150085449219 110.4345550537109 C 65.20078277587891 110.1653900146484 66.20280456542969 110.0263977050781 67.22640228271484 110.0263977050781 C 70.16044616699219 110.0263977050781 72.91881561279297 111.1688995361328 74.99334716796875 113.2434463500977 C 75.41195678710938 113.6620559692383 75.79265594482422 114.1085662841797 76.13363647460938 114.5786819458008 C 77.67829895019531 113.7750549316406 79.40419006347656 113.3491973876953 81.19529724121094 113.3491973876953 C 84.12934875488281 113.3491973876953 86.88770294189453 114.49169921875 88.96224975585938 116.5662460327148 C 89.66119384765625 117.2651977539062 90.25437164306641 118.0418167114258 90.73367309570312 118.8765640258789 C 92.11147308349609 118.269172668457 93.61322784423828 117.9499969482422 95.16419982910156 117.9499969482422 C 98.09825134277344 117.9499969482422 100.8565979003906 119.0924987792969 102.93115234375 121.1670455932617 C 105.0056991577148 123.2416000366211 106.1482009887695 125.9999465942383 106.1482009887695 128.9340057373047 L 106.1482009887695 150.2378997802734 L 106.1482009887695 159.0615081787109 C 106.1482009887695 163.3713226318359 105.3032150268555 167.5543365478516 103.63671875 171.4943695068359 C 102.0279312133789 175.2979583740234 99.72564697265625 178.7131195068359 96.79383087158203 181.6449279785156 C 93.86199951171875 184.5767517089844 90.44686889648438 186.8790283203125 86.64324951171875 188.4878082275391 C 82.70321655273438 190.1543121337891 78.52021789550781 190.9992980957031 74.21040344238281 190.9992980957031 Z" stroke="none"/>
          <path d="M 74.21040344238281 186.9993133544922 C 89.63999938964844 186.9993133544922 102.1482009887695 174.4911041259766 102.1482009887695 159.0615081787109 L 102.1482009887695 128.9340057373047 C 102.1482009887695 125.0766067504883 99.02159881591797 121.9500122070312 95.16419982910156 121.9500122070312 C 91.30680084228516 121.9500122070312 88.17929840087891 125.0766067504883 88.17929840087891 128.9340057373047 L 88.17929840087891 131.6627960205078 L 88.17929840087891 124.3332061767578 C 88.17929840087891 120.4758071899414 85.05269622802734 117.3492126464844 81.19529724121094 117.3492126464844 C 77.33789825439453 117.3492126464844 74.21040344238281 120.4758071899414 74.21040344238281 124.3332061767578 L 74.21040344238281 131.6627960205078 L 74.21040344238281 121.0104064941406 C 74.21040344238281 117.1530075073242 71.08380126953125 114.0264053344727 67.22640228271484 114.0264053344727 C 63.36899948120117 114.0264053344727 60.24150085449219 117.1530075073242 60.24150085449219 121.0104064941406 L 60.24150085449219 131.6627960205078 L 60.24150085449219 96.9840087890625 C 60.24150085449219 93.12660980224609 57.11489868164062 90.00000762939453 53.25749969482422 90.00000762939453 C 49.40010070800781 90.00000762939453 46.27259826660156 93.12660980224609 46.27259826660156 96.9840087890625 L 46.27259826660156 146.578125 L 40.23899841308594 139.3506164550781 C 37.66589736938477 136.2680816650391 33.09389495849609 135.8658142089844 30.0275993347168 138.4524078369141 C 26.96039962768555 141.0390014648438 26.56080055236816 145.6344146728516 29.1338996887207 148.7169036865234 L 52.30619812011719 176.4765014648438 C 52.46614074707031 176.6680297851562 52.6336784362793 176.8490753173828 52.80820083618164 177.0198364257812 C 57.93307876586914 183.1211090087891 65.61884307861328 186.9993133544922 74.21040344238281 186.9993133544922 M 74.21040344238281 194.9993133544922 C 63.56697845458984 194.9993133544922 53.53343963623047 190.3214721679688 46.68246078491211 182.1652526855469 L 22.99239921569824 153.843505859375 C 17.61063957214355 147.3963165283203 18.4530200958252 137.7484283447266 24.87019920349121 132.3367462158203 C 27.6135196685791 130.0225677490234 31.09861946105957 128.7476654052734 34.68259811401367 128.7476654052734 C 35.90580368041992 128.7476654052734 37.10963821411133 128.8932647705078 38.27259826660156 129.1743774414062 L 38.27259826660156 96.9840087890625 C 38.27259826660156 88.72180938720703 44.99480056762695 82.00000762939453 53.25749969482422 82.00000762939453 C 61.51969909667969 82.00000762939453 68.24150085449219 88.72180938720703 68.24150085449219 96.9840087890625 L 68.24150085449219 106.060417175293 C 71.69109344482422 106.2921371459961 74.82402801513672 107.6966247558594 77.24506378173828 109.8774795532227 C 78.50401306152344 109.5331192016602 79.82860565185547 109.3492126464844 81.19529724121094 109.3492126464844 C 85.56996917724609 109.3492126464844 89.51284027099609 111.2337188720703 92.25469207763672 114.2334976196289 C 93.19597625732422 114.0475921630859 94.169189453125 113.9500122070312 95.16419982910156 113.9500122070312 C 103.426399230957 113.9500122070312 110.1482009887695 120.6718063354492 110.1482009887695 128.9340057373047 L 110.1482009887695 159.0615081787109 C 110.1482009887695 178.877685546875 94.02658081054688 194.9993133544922 74.21040344238281 194.9993133544922 Z" stroke="none" fill="#102434"/>
        </g>
      </g>
    </g>
  </g>
</svg>
