<svg xmlns="http://www.w3.org/2000/svg" xmlns:xlink="http://www.w3.org/1999/xlink" width="496" height="496" viewBox="0 0 496 496">
  <defs>
    <clipPath id="clip-infraccionesTransito">
      <rect width="496" height="496"/>
    </clipPath>
  </defs>
  <g id="infraccionesTransito" clip-path="url(#clip-infraccionesTransito)">
    <g id="Rectangle_4" data-name="Rectangle 4" transform="translate(-13 -10)" fill="none" stroke="#707070" stroke-width="1" opacity="0.11">
      <rect width="557" height="550" stroke="none"/>
      <rect x="0.5" y="0.5" width="556" height="549" fill="none"/>
    </g>
    <g id="Component_1_28" data-name="Component 1 – 28" transform="translate(16 16)">
      <g id="Ellipse_1" data-name="Ellipse 1" fill="rgba(167,211,255,0.25)" stroke="#fff" stroke-width="5" opacity="0.5">
        <circle cx="232" cy="232" r="232" stroke="none"/>
        <circle cx="232" cy="232" r="229.5" fill="none"/>
      </g>
    </g>
    <g id="infraccionesTransito-2" data-name="infraccionesTransito">
      <g id="Cono_de_Transito" data-name="Cono de Transito" transform="translate(82.554 78.069)">
        <path id="Path_7" data-name="Path 7" d="M716.915-2217.006l-25.69-91.573H579.916l-25.69,91.573Z" transform="translate(-523.347 2482.922)" fill="#1671bb" stroke="#fff" stroke-width="8"/>
        <path id="Path_8" data-name="Path 8" d="M860.91-3312.937h-13.49l-28.685,102.248h70.859Z" transform="translate(-741.942 3312.937)" fill="#1671bb" stroke="#fff" stroke-width="8"/>
        <path id="Path_9" data-name="Path 9" d="M793.3-2723.905H722.446l-20.225,72.095H813.53Z" transform="translate(-645.652 2826.153)" fill="#fff" stroke="#fff" stroke-width="8"/>
        <path id="Path_10" data-name="Path 10" d="M8.664,0H215.782a8.664,8.664,0,0,1,0,17.329H8.664A8.664,8.664,0,0,1,8.664,0Z" transform="translate(0 266.031)" fill="#102434" stroke="#fff" stroke-width="8"/>
      </g>
      <g id="Multa_o_Ticket_de_transito" data-name="Multa o Ticket de transito" transform="translate(233 192)">
        <g id="Group_12" data-name="Group 12" transform="translate(-231 -146)">
          <g id="Group_6" data-name="Group 6" transform="translate(51 22)">
            <g id="Subtraction_3" data-name="Subtraction 3" transform="translate(710 765)" fill="#fff" stroke-linecap="round">
              <path d="M -496.3031005859375 -431.0496826171875 L -504.7562561035156 -440.6437683105469 L -507.7576904296875 -444.05029296875 L -510.7589111328125 -440.6435852050781 L -518.7700805664062 -431.5500183105469 L -526.0001831054688 -439.7554626464844 L -526.0001220703125 -611.0001220703125 C -526.0001220703125 -614.5115966796875 -525.313232421875 -617.9161376953125 -523.9585571289062 -621.1189575195312 C -522.6492309570312 -624.2145385742188 -520.77392578125 -626.9955444335938 -518.3848876953125 -629.3847045898438 C -515.9957275390625 -631.7737426757812 -513.2147827148438 -633.6489868164062 -510.1193542480469 -634.958251953125 C -506.9164428710938 -636.3129272460938 -503.5119323730469 -636.9998168945312 -500.0004272460938 -636.9998168945312 L -423.9999084472656 -636.9998168945312 C -420.4884338378906 -636.9998168945312 -417.0838928222656 -636.3129272460938 -413.8809509277344 -634.958251953125 C -410.7854614257812 -633.6488647460938 -408.0045166015625 -631.773681640625 -405.615478515625 -629.3846435546875 C -403.2263793945312 -626.9955444335938 -401.35107421875 -624.2145385742188 -400.041748046875 -621.118896484375 C -398.6871032714844 -617.9161376953125 -398.0002136230469 -614.5116577148438 -398.0002136230469 -611.0001220703125 L -398.0002136230469 -439.6874389648438 L -405.8252258300781 -431.3614807128906 L -414.0038757324219 -440.643798828125 L -417.0050354003906 -444.0499572753906 L -420.0062866210938 -440.6438293457031 L -428.4588317871094 -431.0509338378906 L -436.9126892089844 -440.64404296875 L -439.9140319824219 -444.0498657226562 L -442.9150085449219 -440.6436767578125 L -450.6669921875 -431.8449096679688 L -459.0255126953125 -440.7387390136719 L -461.9401550292969 -443.8400573730469 L -464.8549499511719 -440.7388916015625 L -473.6689758300781 -431.3613586425781 L -481.8476867675781 -440.643798828125 L -484.8489685058594 -444.0501098632812 L -487.8501892089844 -440.6437377929688 L -496.3031005859375 -431.0496826171875 Z" stroke="none"/>
              <path d="M -496.3031311035156 -437.1003723144531 L -484.8490295410156 -450.1007690429688 L -473.5734252929688 -437.3035278320312 L -461.9399719238281 -449.6806640625 L -450.7625122070312 -437.787353515625 L -439.9143981933594 -450.1003112792969 L -428.4590454101562 -437.1011962890625 L -417.0050354003906 -450.1004943847656 L -405.7297973632812 -437.3037414550781 L -402.0002136230469 -441.2720947265625 L -402.0002136230469 -611.0001220703125 C -402.0002136230469 -613.9734497070312 -402.5807800292969 -616.8536987304688 -403.7257995605469 -619.5607299804688 C -404.8334350585938 -622.1795043945312 -406.4208679199219 -624.5331420898438 -408.44384765625 -626.55615234375 C -410.4668579101562 -628.5791625976562 -412.8204650878906 -630.16650390625 -415.4391174316406 -631.2742309570312 C -418.1463623046875 -632.4192504882812 -421.0266418457031 -632.9998168945312 -423.9999084472656 -632.9998168945312 L -500.0004272460938 -632.9998168945312 C -502.9737243652344 -632.9998168945312 -505.8539733886719 -632.4192504882812 -508.5610656738281 -631.2742919921875 C -511.1798400878906 -630.1666259765625 -513.533447265625 -628.5791625976562 -515.556396484375 -626.5563354492188 C -517.5794067382812 -624.533203125 -519.1668701171875 -622.1795043945312 -520.2744750976562 -619.560791015625 C -521.4195556640625 -616.8536376953125 -522.0001220703125 -613.973388671875 -522.0001220703125 -611.0001220703125 L -522.0001831054688 -441.266357421875 L -518.7703857421875 -437.600830078125 L -507.7578735351562 -450.1011657714844 L -496.3031311035156 -437.1003723144531 M -496.3030700683594 -424.9989624023438 L -496.3038330078125 -424.9998168945312 L -507.7575073242188 -437.9994201660156 L -518.7698364257812 -425.4992370605469 L -529.7841186523438 -437.9994201660156 L -530.0001831054688 -437.7542114257812 L -530.0001220703125 -611.0001220703125 C -530.0001220703125 -615.0499267578125 -529.2069091796875 -618.9786376953125 -527.642578125 -622.6771850585938 C -526.131591796875 -626.2494506835938 -523.968505859375 -629.4578247070312 -521.21337890625 -632.2130737304688 C -518.4581909179688 -634.9681396484375 -515.2498779296875 -637.1312866210938 -511.6775512695312 -638.6422729492188 C -507.9789733886719 -640.2066040039062 -504.0502319335938 -640.9998168945312 -500.0004272460938 -640.9998168945312 L -423.9999084472656 -640.9998168945312 C -419.9501342773438 -640.9998168945312 -416.0213928222656 -640.2066040039062 -412.3227844238281 -638.6422729492188 C -408.7504272460938 -637.1312255859375 -405.5421447753906 -634.9681396484375 -402.7870483398438 -632.2130737304688 C -400.0318908691406 -629.4578857421875 -397.8687438964844 -626.2495727539062 -396.3577575683594 -622.6771850585938 C -394.7933959960938 -618.9786376953125 -394.0002136230469 -615.0499267578125 -394.0002136230469 -611.0001220703125 L -394.0002136230469 -437.89599609375 L -394.097412109375 -437.9993896484375 L -405.9206848144531 -425.4192199707031 L -417.0050964355469 -437.9994201660156 L -428.4586486816406 -425.0006713867188 L -439.9136962890625 -437.9994201660156 L -450.5715026855469 -425.9024963378906 L -461.9402770996094 -437.9993896484375 L -473.7645263671875 -425.4192199707031 L -484.8489074707031 -437.9994201660156 L -496.3030700683594 -424.9989624023438 Z" stroke="none" fill="#102434"/>
            </g>
          </g>
        </g>
        <g id="Group_78" data-name="Group 78" transform="translate(-180 -105)">
          <line id="Line_4" data-name="Line 4" x2="40" transform="translate(209.5 279)" fill="none" stroke="#102434" stroke-linecap="round" stroke-width="8"/>
          <line id="Line_7" data-name="Line 7" x2="78" transform="translate(209.5 229)" fill="none" stroke="#102434" stroke-linecap="round" stroke-width="8"/>
          <line id="Line_8" data-name="Line 8" x2="78" transform="translate(209.5 244)" fill="none" stroke="#102434" stroke-linecap="round" stroke-width="8"/>
          <line id="Line_9" data-name="Line 9" x2="78" transform="translate(209.5 259)" fill="none" stroke="#102434" stroke-linecap="round" stroke-width="8"/>
        </g>
        <text id="_" data-name="$" transform="translate(68 87)" fill="#1671bb" font-size="60" font-family="Roboto-Black, Roboto" font-weight="800"><tspan x="0" y="0">$</tspan></text>
        <line id="Line_41" data-name="Line 41" x2="8" y2="17.538" transform="translate(52.5 58.662)" fill="none" stroke="#102434" stroke-linecap="round" stroke-width="8"/>
        <line id="Line_42" data-name="Line 42" x1="8" y2="17.538" transform="translate(32.5 58.662)" fill="none" stroke="#102434" stroke-linecap="round" stroke-width="8"/>
      </g>
    </g>
  </g>
</svg>
