<svg xmlns="http://www.w3.org/2000/svg" xmlns:xlink="http://www.w3.org/1999/xlink" width="496" height="496" viewBox="0 0 496 496">
  <defs>
    <clipPath id="clip-realizarPago">
      <rect width="496" height="496"/>
    </clipPath>
  </defs>
  <g id="realizarPago" clip-path="url(#clip-realizarPago)">
    <g id="Component_1_23" data-name="Component 1 – 23" transform="translate(16 16)">
      <g id="Ellipse_1" data-name="Ellipse 1" fill="rgba(167,211,255,0.25)" stroke="#fff" stroke-width="5" opacity="0.5">
        <circle cx="232" cy="232" r="232" stroke="none"/>
        <circle cx="232" cy="232" r="229.5" fill="none"/>
      </g>
    </g>
    <g id="Rectangle_4" data-name="Rectangle 4" transform="translate(-13 -10)" fill="none" stroke="#707070" stroke-width="1" opacity="0.11">
      <rect width="557" height="550" stroke="none"/>
      <rect x="0.5" y="0.5" width="556" height="549" fill="none"/>
    </g>
    <g id="Group_10" data-name="Group 10" transform="translate(0 15)">
      <g id="Group_6" data-name="Group 6" transform="translate(-61.364 105.198)">
        <g id="Tarjeta_de_credito" data-name="Tarjeta de credito" transform="translate(180.364 117.802)">
          <g id="Rectangle_3" data-name="Rectangle 3" fill="#1671bb" stroke="#fff" stroke-linecap="round" stroke-width="8">
            <rect width="258" height="164" rx="24" stroke="none"/>
            <rect x="4" y="4" width="250" height="156" rx="20" fill="none"/>
          </g>
          <g id="Group_8" data-name="Group 8" transform="translate(-180.364 -132.802)">
            <line id="Line_10" data-name="Line 10" x2="31.73" transform="translate(217.088 226.903)" fill="none" stroke="#fff" stroke-linecap="round" stroke-width="8"/>
            <line id="Line_11" data-name="Line 11" x2="31.73" transform="translate(268.458 226.903)" fill="none" stroke="#fff" stroke-linecap="round" stroke-width="8"/>
            <line id="Line_12" data-name="Line 12" x2="31.73" transform="translate(319.828 226.903)" fill="none" stroke="#fff" stroke-linecap="round" stroke-width="8"/>
            <line id="Line_13" data-name="Line 13" x2="31.73" transform="translate(371.198 226.903)" fill="none" stroke="#fff" stroke-linecap="round" stroke-width="8"/>
          </g>
          <g id="Group_7" data-name="Group 7" transform="translate(192.078 112.585)">
            <path id="Subtraction_2" data-name="Subtraction 2" d="M13.2,26.389A13.194,13.194,0,1,1,18.318,1.032a17,17,0,0,0,0,24.326A13.109,13.109,0,0,1,13.2,26.389Z" transform="translate(0 0)" fill="#fff"/>
            <ellipse id="Ellipse_11" data-name="Ellipse 11" cx="12.5" cy="13" rx="12.5" ry="13" transform="translate(16.922 0.415)" fill="#c7e5ff"/>
          </g>
          <g id="Subtraction_21" data-name="Subtraction 21" transform="translate(34.471 22.793)" fill="#102434" stroke-linecap="round" stroke-linejoin="round">
            <path d="M 17.25432777404785 31.28291893005371 L 15.75432777404785 31.28291893005371 L 15.75374794006348 31.28291893005371 L 14.25374794006348 31.28291893005371 L 14.25374794006348 31.08163642883301 C 14.16424942016602 31.06448554992676 14.07507705688477 31.0465202331543 13.98620796203613 31.02772903442383 L 13.64759826660156 30.95612907409668 L 13.37458801269531 30.74339866638184 C 13.26799392700195 30.66034126281738 13.16261768341064 30.57361030578613 13.05856513977051 30.48330879211426 L 12.87654781341553 30.8083381652832 L 11.65609836578369 30.32520866394043 C 10.65530776977539 29.92852783203125 9.697658538818359 29.41826820373535 8.809727668762207 28.8085994720459 C 7.914768218994141 28.19407844543457 7.087337970733643 27.47622871398926 6.35040807723999 26.67497825622559 C 5.250247955322266 25.47911834716797 4.368668079376221 24.11994934082031 3.730278015136719 22.63538932800293 C 3.09328818321228 21.15401840209961 2.714548110961914 19.58546829223633 2.604598045349121 17.97330856323242 L 2.506388902664185 16.53340911865234 L 2.472008228302002 16.53340911865234 L 2.49586820602417 16.3791561126709 L 2.495328187942505 16.37123870849609 L 2.497092962265015 16.37123870849609 L 2.739498138427734 14.80411911010742 C 3.172998189926147 12.00156879425049 4.42166805267334 9.411978721618652 6.350528240203857 7.315288543701172 C 7.087448120117188 6.514078617095947 7.914947986602783 5.796168804168701 8.809938430786133 5.181638717651367 C 9.69855785369873 4.571468830108643 10.65706825256348 4.060858726501465 11.65885829925537 3.663988828659058 L 12.10695171356201 4.476216793060303 C 12.506911277771 4.00443172454834 12.93099975585938 3.593539476394653 13.37718772888184 3.246088743209839 L 13.65019798278809 3.033488750457764 L 13.9887580871582 2.961968660354614 C 14.52243804931641 2.849228858947754 15.06872844696045 2.765878677368164 15.61246776580811 2.714218854904175 L 16.92795753479004 2.589252471923828 L 16.92795753479004 2.553248643875122 L 17.10431098937988 2.572499752044678 L 17.25432777404785 2.55824875831604 L 17.25432777404785 2.588875770568848 L 18.59072875976562 2.734758853912354 C 19.06606864929199 2.786648750305176 19.54413795471191 2.863058805465698 20.01165771484375 2.961888790130615 L 20.34997749328613 3.033398628234863 L 20.62284851074219 3.245818853378296 C 21.0695858001709 3.593583106994629 21.4941520690918 4.004928112030029 21.8945426940918 4.477328300476074 L 22.34292793273926 3.664838790893555 C 23.35961723327637 4.067858695983887 24.33140754699707 4.587738513946533 25.23129844665527 5.210038661956787 C 26.13753890991211 5.836728572845459 26.97320747375488 6.568948745727539 27.715087890625 7.386358737945557 C 28.88577842712402 8.676359176635742 29.80158805847168 10.14709854125977 30.4371280670166 11.75776863098145 C 30.82228469848633 12.73422527313232 31.09892272949219 13.75345516204834 31.25954055786133 14.7877025604248 L 31.56753730773926 16.5330696105957 L 31.49331855773926 16.53308296203613 L 31.39621734619141 17.97221946716309 C 31.29745864868164 19.43595886230469 30.97479820251465 20.86928939819336 30.43721771240234 22.23239898681641 C 29.80159759521484 23.84328842163086 28.88578796386719 25.31402969360352 27.71513748168945 26.6039981842041 C 26.97319793701172 27.42146873474121 26.1375789642334 28.15364837646484 25.23143768310547 28.78026962280273 C 24.33238792419434 29.40197944641113 23.36148834228516 29.92147827148438 22.3456974029541 30.32434844970703 L 21.11498832702637 30.81245803833008 L 20.9362907409668 30.48697471618652 C 20.83321952819824 30.57624626159668 20.72879409790039 30.66207695007324 20.62321853637695 30.74427795410156 L 20.35030746459961 30.95675849914551 L 20.01191902160645 31.02828788757324 C 19.54441833496094 31.12710952758789 19.06643867492676 31.20351791381836 18.59126853942871 31.2553882598877 L 18.51011848449707 31.26424789428711 L 18.42846870422363 31.26425933837891 L 18.42795753479004 31.26425933837891 L 17.25432777404785 31.26425933837891 L 17.25432777404785 31.28291893005371 Z" stroke="none"/>
            <path d="M 15.75432777404785 29.78291893005371 L 15.75432777404785 17.87123870849609 L 9.883988380432129 17.87123870849609 C 9.938528060913086 19.5129280090332 10.14510822296143 21.09831809997559 10.49797821044922 22.58337783813477 C 10.85158824920654 24.07152938842773 11.34283828735352 25.41981887817383 11.95809841156006 26.59078788757324 C 12.63530826568604 27.8797492980957 13.42203807830811 28.8787784576416 14.29653835296631 29.56017875671387 C 14.77459812164307 29.66126823425293 15.26487827301025 29.73620796203613 15.75374794006348 29.78262901306152 L 15.75432777404785 29.78291893005371 M 18.42846870422363 29.76425933837891 L 18.42848777770996 29.76424789428711 C 18.85426902770996 29.71776962280273 19.2825984954834 29.6493091583252 19.70169830322266 29.56071853637695 C 20.57788848876953 28.87851905822754 21.36544799804688 27.8792896270752 22.04250717163086 26.59078788757324 C 22.65779876708984 25.41999816894531 23.1490478515625 24.07170867919922 23.50259780883789 22.58337783813477 C 23.85518836975098 21.09906959533691 24.06178855895996 19.51377868652344 24.11636734008789 17.87123870849609 L 18.42795753479004 17.87123870849609 L 18.42846870422363 29.76425933837891 M 12.20880794525146 28.93074798583984 L 12.20908832550049 28.93024826049805 C 11.35988807678223 28.30927848815918 10.57929801940918 27.52216911315918 9.889008522033691 26.59077835083008 C 8.965348243713379 25.34416961669922 8.240287780761719 23.8929386138916 7.733978271484375 22.27739906311035 C 7.294178009033203 20.87394905090332 7.0351881980896 19.39159965515137 6.963888168334961 17.87123870849609 L 4.101118087768555 17.87123870849609 C 4.199518203735352 19.31397819519043 4.538378238677979 20.71749877929688 5.108278274536133 22.0428295135498 C 5.679647922515869 23.37154960632324 6.469007968902588 24.58838844299316 7.454448223114014 25.65955924987793 C 8.115118026733398 26.37788963317871 8.856767654418945 27.02132797241211 9.658787727355957 27.57202911376953 C 10.45425796508789 28.11821937561035 11.31220817565918 28.57536888122559 12.20880794525146 28.93074798583984 M 21.79268836975098 28.93000793457031 C 22.70277786254883 28.56905937194824 23.57269859313965 28.10359954833984 24.3782787322998 27.54652786254883 C 25.19036865234375 26.98494911193848 25.93932723999023 26.32867813110352 26.60434722900391 25.5959587097168 C 27.65288734436035 24.44054794311523 28.47297859191895 23.12372779846191 29.04181861877441 21.68207931518555 C 29.52252769470215 20.46317863464355 29.81123733520508 19.18112945556641 29.89961814880371 17.87123870849609 L 27.03645896911621 17.87123870849609 C 26.96512794494629 19.39248847961426 26.70611763000488 20.87493896484375 26.26663780212402 22.27739906311035 C 25.75998878479004 23.89314842224121 25.03483772277832 25.34437942504883 24.11133766174316 26.59077835083008 C 23.42151832580566 27.52179908752441 22.64131736755371 28.30865859985352 21.79240798950195 28.92949867248535 L 21.79268836975098 28.93000793457031 M 29.77971839904785 15.03340911865234 L 29.7796573638916 15.03306865692139 C 29.63639831542969 14.10309886932373 29.38815879821777 13.18636894226074 29.04181861877441 12.30832862854004 C 28.47297859191895 10.86668872833252 27.65289878845215 9.549868583679199 26.60434722900391 8.394458770751953 C 25.93931770324707 7.661718845367432 25.1903076171875 7.00541877746582 24.37812805175781 6.443778514862061 C 23.57250785827637 5.886668682098389 22.70188903808594 5.420688629150391 21.79016876220703 5.059278964996338 C 22.63988876342773 5.680318832397461 23.42083740234375 6.467638969421387 24.11133766174316 7.399368762969971 C 25.03474807739258 8.645638465881348 25.7598876953125 10.09695911407471 26.26663780212402 11.71300888061523 C 26.60025787353516 12.77709865570068 26.83112716674805 13.89414882659912 26.95315742492676 15.03340911865234 L 29.77971839904785 15.03340911865234 M 24.05738830566406 15.03340911865234 L 24.0573673248291 15.03308868408203 C 23.83798789978027 12.13021850585938 23.14125823974609 9.490518569946289 22.04250717163086 7.399368762969971 C 21.36535835266113 6.110828876495361 20.5777473449707 5.111628532409668 19.70143890380859 4.429458618164062 C 19.28356742858887 4.341128826141357 18.8552188873291 4.272538661956787 18.42795753479004 4.225898742675781 L 18.42795753479004 15.03340911865234 L 24.05738830566406 15.03340911865234 M 15.75432777404785 15.03340911865234 L 15.75432777404785 4.207498550415039 C 15.26694774627686 4.253798961639404 14.77727794647217 4.328498840332031 14.29878807067871 4.42957878112793 C 13.42268848419189 5.111808776855469 12.63515853881836 6.110988616943359 11.95809841156006 7.399368762969971 C 10.85951805114746 9.490199089050293 10.16259765625 12.12989902496338 9.942957878112793 15.03340911865234 L 15.75374794006348 15.03310871124268 L 15.75432777404785 15.03340911865234 M 7.047458171844482 15.03340911865234 L 7.047488212585449 15.03314876556396 C 7.169137954711914 13.89493846893311 7.400108337402344 12.77788829803467 7.733978271484375 11.71300888061523 C 8.240378379821777 10.09717845916748 8.965437889099121 8.645858764648438 9.889008522033691 7.399368762969971 C 10.58036804199219 6.466738700866699 11.36179828643799 5.679338932037354 12.21132850646973 5.058538913726807 C 11.31386852264404 5.414078712463379 10.4551477432251 5.871528625488281 9.659008026123047 6.418198585510254 C 8.856907844543457 6.968948841094971 8.115187644958496 7.6124587059021 7.454448223114014 8.330848693847656 C 5.727718353271484 10.20781898498535 4.609807968139648 12.52539920806885 4.22186803817749 15.03340911865234 L 7.047458171844482 15.03340911865234 M 15.75432777404785 32.78291702270508 L 15.75374794006348 32.78291702270508 C 15.63603687286377 32.78291702270508 15.51978588104248 32.776123046875 15.40561103820801 32.76293563842773 C 14.82612228393555 32.70549774169922 14.24450874328613 32.61551284790039 13.67588806152344 32.49527740478516 C 13.23025798797607 32.40103912353516 12.81192779541016 32.20657730102539 12.45263767242432 31.9266185760498 C 12.45048999786377 31.92494583129883 12.44830417633057 31.92324066162109 12.44615840911865 31.92156410217285 C 12.00105476379395 31.95724868774414 11.54274272918701 31.89380645751953 11.1033878326416 31.71965789794922 C 9.998377799987793 31.28167915344238 8.941018104553223 30.71829795837402 7.960668087005615 30.04515838623047 C 6.972798347473145 29.36684799194336 6.059577941894531 28.57459831237793 5.246357917785645 27.69040870666504 C 4.031477928161621 26.36983871459961 3.057688236236572 24.86835861206055 2.352288007736206 23.22794914245605 C 1.648198127746582 21.59054946899414 1.229588150978088 19.85697937011719 1.108068108558655 18.07537841796875 C 1.066332101821899 17.46341323852539 1.213364481925964 16.85886383056641 1.521320819854736 16.3399829864502 C 1.258809804916382 15.79735565185547 1.163156032562256 15.18232727050781 1.257128119468689 14.57481861114502 C 1.736228108406067 11.47744846343994 3.115768194198608 8.615968704223633 5.246608257293701 6.299728870391846 C 6.059698104858398 5.415698528289795 6.972988128662109 4.623398780822754 7.960877895355225 3.94507884979248 C 8.941967964172363 3.271398782730103 10.00028800964355 2.707628726959229 11.10638809204102 2.269428730010986 C 11.54569721221924 2.095394134521484 12.00430870056152 2.032042741775513 12.44913196563721 2.067631721496582 C 12.45128154754639 2.065954446792603 12.45343685150146 2.064273834228516 12.45558834075928 2.062598705291748 C 12.81488800048828 1.782798767089844 13.23316764831543 1.588478684425354 13.6787281036377 1.494358777999878 C 14.26771831512451 1.369938731193542 14.87059783935547 1.27794873714447 15.47060775756836 1.220948696136475 C 16.04072952270508 1.166784882545471 16.60835838317871 1.277247786521912 17.10963439941406 1.531079649925232 C 17.61446571350098 1.284136056900024 18.18383026123047 1.181432247161865 18.75350761413574 1.243618726730347 C 19.27814865112305 1.300888776779175 19.80582809448242 1.385228753089905 20.32186889648438 1.494318723678589 C 20.76713752746582 1.588438749313354 21.18514823913574 1.782628774642944 21.54425811767578 2.06217885017395 C 21.54692840576172 2.064257860183716 21.54955673217773 2.066306591033936 21.55222702026367 2.068389415740967 C 21.99740409851074 2.032699346542358 22.45605087280273 2.096134901046753 22.89568901062012 2.270408630371094 C 24.01814842224121 2.715348720550537 25.09099769592285 3.28929877281189 26.08445739746094 3.976308822631836 C 27.08475875854492 4.668028831481934 28.00708770751953 5.476168632507324 28.82582855224609 6.37825870513916 C 30.11866760253906 7.802858829498291 31.13020896911621 9.427528381347656 31.83243751525879 11.20720863342285 C 32.26062774658203 12.29275894165039 32.56750869750977 13.42617893218994 32.74468994140625 14.57630920410156 C 32.83811187744141 15.1827278137207 32.74265670776367 15.79770183563232 32.47981262207031 16.34065437316895 C 32.78714370727539 16.85875701904297 32.93404006958008 17.46218299865723 32.89280700683594 18.07318878173828 C 32.78363800048828 19.69123840332031 32.42693710327148 21.27574920654297 31.83262825012207 22.78271865844727 C 31.13021850585938 24.56285858154297 30.11868858337402 26.18751907348633 28.82591819763184 27.6120491027832 C 28.00707817077637 28.51424789428711 27.08479881286621 29.32234954833984 26.08459854125977 30.01400947570801 C 25.09204864501953 30.70037841796875 24.02016830444336 31.2739086151123 22.89870834350586 31.71868896484375 C 22.45865631103516 31.89321708679199 21.99926567077637 31.95665550231934 21.55372047424316 31.92082595825195 C 21.55075645446777 31.92314147949219 21.54769515991211 31.92552757263184 21.54472732543945 31.9278392791748 C 21.18556785583496 32.20747756958008 20.76747894287109 32.40171813964844 20.32212829589844 32.49585723876953 C 19.80610847473145 32.60493850708008 19.27852821350098 32.68927764892578 18.75404739379883 32.74652862548828 C 18.64592742919922 32.75833892822266 18.53722763061523 32.76425933837891 18.42846870422363 32.76425933837891 L 18.42795753479004 32.76425933837891 C 17.95509338378906 32.76425933837891 17.5076847076416 32.65480804443359 17.10985565185547 32.45993041992188 C 16.70269012451172 32.66653442382812 16.24216079711914 32.78291702270508 15.75432777404785 32.78291702270508 Z" stroke="none" fill="#fff"/>
          </g>
        </g>
      </g>
      <g id="Group_9" data-name="Group 9" transform="translate(0 -13)">
        <g id="Recibo_de_pago" data-name="Recibo de pago" transform="translate(194 80)">
          <g id="Rectangle_9" data-name="Rectangle 9" fill="#fff" stroke="#1671bb" stroke-width="8">
            <rect width="109" height="138" rx="30" stroke="none"/>
            <rect x="4" y="4" width="101" height="130" rx="26" fill="none"/>
          </g>
          <text id="_" data-name="$" transform="translate(37 73)" fill="#102434" font-size="60" font-family="Roboto-Black, Roboto" font-weight="800"><tspan x="0" y="0">$</tspan></text>
          <line id="Line_14" data-name="Line 14" x2="44" transform="translate(32 107.5)" fill="none" stroke="#1671bb" stroke-linecap="round" stroke-width="8"/>
          <line id="Line_15" data-name="Line 15" x2="44" transform="translate(32.5 93.5)" fill="none" stroke="#1671bb" stroke-linecap="round" stroke-width="8"/>
        </g>
      </g>
    </g>
    <g id="Hand_-_mano" data-name="Hand - mano" transform="translate(320.4 257)">
      <g id="Union_8" data-name="Union 8" transform="translate(-68.762 -26.868) rotate(-30)" fill="#fff" stroke-linecap="round" stroke-linejoin="round">
        <path d="M 74.21040344238281 190.9992980957031 C 64.81159210205078 190.9992980957031 55.94774627685547 186.8944549560547 49.86176300048828 179.7303466796875 C 49.64429473876953 179.5094451904297 49.43436050415039 179.2780151367188 49.2358512878418 179.040283203125 L 26.06315040588379 151.2801971435547 C 24.13686561584473 148.9725646972656 23.2197322845459 146.0503540039062 23.48069953918457 143.0518646240234 C 23.7418155670166 140.0517730712891 25.15108299255371 137.3323516845703 27.44891738891602 135.3945770263672 C 29.47216606140137 133.6878356933594 32.04129791259766 132.7476806640625 34.68259811401367 132.7476806640625 C 37.51778411865234 132.7476806640625 40.21208953857422 133.8086395263672 42.27259826660156 135.6999359130859 L 42.27259826660156 133.4961090087891 L 42.27259826660156 96.98400115966797 C 42.27259826660156 94.04986572265625 43.41534805297852 91.29141235351562 45.49034881591797 89.216796875 C 47.56510162353516 87.14241790771484 50.32353210449219 86 53.25749969482422 86 C 56.19155120849609 86 58.94990158081055 87.14250183105469 61.02444839477539 89.21704864501953 C 63.0989990234375 91.29159545898438 64.24150085449219 94.04994964599609 64.24150085449219 96.98400115966797 L 64.24150085449219 110.4345550537109 C 65.20078277587891 110.1653900146484 66.20280456542969 110.0263977050781 67.22640228271484 110.0263977050781 C 70.16044616699219 110.0263977050781 72.91881561279297 111.1688995361328 74.99334716796875 113.2434463500977 C 75.41195678710938 113.6620559692383 75.79265594482422 114.1085662841797 76.13363647460938 114.5786819458008 C 77.67829895019531 113.7750549316406 79.40419006347656 113.3491973876953 81.19529724121094 113.3491973876953 C 84.12934875488281 113.3491973876953 86.88770294189453 114.49169921875 88.96224975585938 116.5662460327148 C 89.66119384765625 117.2651977539062 90.25437164306641 118.0418167114258 90.73367309570312 118.8765640258789 C 92.11147308349609 118.269172668457 93.61322784423828 117.9499969482422 95.16419982910156 117.9499969482422 C 98.09825134277344 117.9499969482422 100.8565979003906 119.0924987792969 102.93115234375 121.1670455932617 C 105.0056991577148 123.2416000366211 106.1482009887695 125.9999465942383 106.1482009887695 128.9340057373047 L 106.1482009887695 150.2378997802734 L 106.1482009887695 159.0615081787109 C 106.1482009887695 163.3713226318359 105.3032150268555 167.5543365478516 103.63671875 171.4943695068359 C 102.0279312133789 175.2979583740234 99.72564697265625 178.7131195068359 96.79383087158203 181.6449279785156 C 93.86199951171875 184.5767517089844 90.44686889648438 186.8790283203125 86.64324951171875 188.4878082275391 C 82.70321655273438 190.1543121337891 78.52021789550781 190.9992980957031 74.21040344238281 190.9992980957031 Z" stroke="none"/>
        <path d="M 74.21040344238281 186.9993133544922 C 89.63999938964844 186.9993133544922 102.1482009887695 174.4911041259766 102.1482009887695 159.0615081787109 L 102.1482009887695 128.9340057373047 C 102.1482009887695 125.0766067504883 99.02159881591797 121.9500122070312 95.16419982910156 121.9500122070312 C 91.30680084228516 121.9500122070312 88.17929840087891 125.0766067504883 88.17929840087891 128.9340057373047 L 88.17929840087891 131.6627960205078 L 88.17929840087891 124.3332061767578 C 88.17929840087891 120.4758071899414 85.05269622802734 117.3492126464844 81.19529724121094 117.3492126464844 C 77.33789825439453 117.3492126464844 74.21040344238281 120.4758071899414 74.21040344238281 124.3332061767578 L 74.21040344238281 131.6627960205078 L 74.21040344238281 121.0104064941406 C 74.21040344238281 117.1530075073242 71.08380126953125 114.0264053344727 67.22640228271484 114.0264053344727 C 63.36899948120117 114.0264053344727 60.24150085449219 117.1530075073242 60.24150085449219 121.0104064941406 L 60.24150085449219 131.6627960205078 L 60.24150085449219 96.9840087890625 C 60.24150085449219 93.12660980224609 57.11489868164062 90.00000762939453 53.25749969482422 90.00000762939453 C 49.40010070800781 90.00000762939453 46.27259826660156 93.12660980224609 46.27259826660156 96.9840087890625 L 46.27259826660156 146.578125 L 40.23899841308594 139.3506164550781 C 37.66589736938477 136.2680816650391 33.09389495849609 135.8658142089844 30.0275993347168 138.4524078369141 C 26.96039962768555 141.0390014648438 26.56080055236816 145.6344146728516 29.1338996887207 148.7169036865234 L 52.30619812011719 176.4765014648438 C 52.46614074707031 176.6680297851562 52.6336784362793 176.8490753173828 52.80820083618164 177.0198364257812 C 57.93307876586914 183.1211090087891 65.61884307861328 186.9993133544922 74.21040344238281 186.9993133544922 M 74.21040344238281 194.9993133544922 C 63.56697845458984 194.9993133544922 53.53343963623047 190.3214721679688 46.68246078491211 182.1652526855469 L 22.99239921569824 153.843505859375 C 17.61063957214355 147.3963165283203 18.4530200958252 137.7484283447266 24.87019920349121 132.3367462158203 C 27.6135196685791 130.0225677490234 31.09861946105957 128.7476654052734 34.68259811401367 128.7476654052734 C 35.90580368041992 128.7476654052734 37.10963821411133 128.8932647705078 38.27259826660156 129.1743774414062 L 38.27259826660156 96.9840087890625 C 38.27259826660156 88.72180938720703 44.99480056762695 82.00000762939453 53.25749969482422 82.00000762939453 C 61.51969909667969 82.00000762939453 68.24150085449219 88.72180938720703 68.24150085449219 96.9840087890625 L 68.24150085449219 106.060417175293 C 71.69109344482422 106.2921371459961 74.82402801513672 107.6966247558594 77.24506378173828 109.8774795532227 C 78.50401306152344 109.5331192016602 79.82860565185547 109.3492126464844 81.19529724121094 109.3492126464844 C 85.56996917724609 109.3492126464844 89.51284027099609 111.2337188720703 92.25469207763672 114.2334976196289 C 93.19597625732422 114.0475921630859 94.169189453125 113.9500122070312 95.16419982910156 113.9500122070312 C 103.426399230957 113.9500122070312 110.1482009887695 120.6718063354492 110.1482009887695 128.9340057373047 L 110.1482009887695 159.0615081787109 C 110.1482009887695 178.877685546875 94.02658081054688 194.9993133544922 74.21040344238281 194.9993133544922 Z" stroke="none" fill="#102434"/>
      </g>
    </g>
  </g>
</svg>
